<svg xmlns="http://www.w3.org/2000/svg" style="font-style:normal;font-weight:400;fill:#000;fill-opacity:1;stroke:#000;stroke-width:1;stroke-linecap:square;stroke-linejoin:miter;stroke-miterlimit:10;stroke-opacity:1;stroke-dasharray:none;stroke-dashoffset:0;font-family:Dialog" viewBox="0 0 580 616" width="870" height="924" version="1.0"><path style="fill:#b9b9b9;fill-opacity:1;fill-rule:evenodd;stroke:#b9b9b9;stroke-width:1.0499999499999999;stroke-linecap:butt;stroke-linejoin:bevel;stroke-miterlimit:10;stroke-opacity:1;stroke-dasharray:none" d="m739.438 34.781-3 1.5-12 1.5-1.5 1.5-4.5 1.5h-1.5l-1.5 1.5h-3l-3 3h-4.5l-3 1.5-3 1.5-1.5-1.5-1.5 1.5h-7.5l-4.5 1.5-6 1.5h-3l-3 1.5h-3l-4.5 1.5-4.5 1.5-1.5 1.5v1.5l-3 1.5-1.5-1.5-1.5-1.5-7.5-4.5h-1.5l-6 3v-1.5h-1.5v1.5h-1.5v-1.5l-1.5 1.5 1.5 1.5h1.5l1.5 1.5h1.5l1.5 1.5h1.5v1.5h-4.5v-1.5l-3-1.5v-1.5h-3l-1.5 3h1.5l1.5 1.5h1.5v1.5l-1.5 1.5-1.5-1.5v1.5l1.5 1.5h7.5v1.5h-4.5l-3-1.5v1.5l-1.5-1.5v1.5l1.5 1.5h7.5l1.5-1.5v3h-1.5l1.5 1.5 1.5-1.5h1.5v1.5l-1.5 1.5h-3v1.5l1.5 1.5 1.5-1.5h1.5l-1.5 1.5h-3l1.5 1.5v1.5h-1.5v-1.5l-1.5-1.5v-1.5h-1.5l1.5-1.5h-1.5l-1.5-1.5v1.5l-1.5 3v-3l-3-1.5-1.5 1.5v1.5l3 3v1.5h-1.5v-1.5l-1.5 1.5v-1.5l-1.5-1.5v-6l-1.5-1.5v-1.5l1.5-1.5h-1.5v-3l-1.5-1.5 1.5-3v-3l3-1.5-7.5 3h-1.5l-3-1.5h-4.5v1.5h-3l-1.5-1.5-6 1.5h-4.5l-1.5 1.5-6 1.5h-3l-6 3h-7.5v-1.5l-1.5-1.5v3l-3 1.5-3 1.5-1.5 1.5-3 1.5-1.5 1.5-3 1.5h-3l-4.5 3-6 3-3 1.5-7.5 4.5h-4.5l-1.5 1.5-3 1.5h-1.5l-1.5 1.5-3 1.5-3 1.5-1.5 1.5-3 3-1.5 3-1.5 1.5v1.5h-1.5v1.5l-3 1.5-1.5 1.5h-1.5l-3 3-1.5 1.5h-1.5l-1.5 1.5-1.5 3h-1.5l-1.5 1.5-1.5 3-1.5 4.5-1.5 1.5v1.5h1.5l-1.5 1.5-1.5 1.5-1.5 1.5v1.5h1.5v3l-1.5 3v9l-1.5 1.5v1.5l-3 1.5h-1.5l1.5 1.5-1.5 1.5v1.5l-1.5 1.5h1.5l1.5 1.5 1.5 3v4.5l1.5 3h-1.5l1.5 1.5h-1.5v-4.5h-1.5v-3h-3v-1.5h-1.5l1.5 3v1.5l1.5 1.5 1.5 1.5h-1.5v3h3v4.5l1.5-1.5v1.5h-1.5v1.5h1.5l1.5 1.5v4.5l-1.5 1.5v3l1.5 4.5v3l1.5 1.5v.5l3-2-3 3v-1l-1.5 1v4.5h-1.5l-1.5 1.5 1.5 1.5 1.5 3v6l-1.5 1.5h-3l-3 3-1.5 1.5-1.5 1.5 1.5 1.5v3h3v1.5h1.5l3 3 3 3h7.5v-1.5l4.5 1.5h3l1.5 1.5 6 3h3v1.5h3l1.5-1.5h1.5v-1.5l1.5-1.5v-1.5l3-1.5 3 1.5 1.5-1.5 3-1.5h1.5l1.5 1.5v3h9v1.5h1.5l1.5-1.5v3h-1.5l-7.5 1.5h-1.5v1.5l-4.5 7.5-7.5 12v1.5l-1.5 4.5v28.5h1.5l1.5 1.5 1.5 1.5 3 4.5 4.5 6 1.5 1.5h36l-1.5 1.5v6l1.5 1.5v1.5l-6-1.5 1.5 1.5h3v1.5l1.5 1.5v3l1.5 1.5 1.5 1.5v3l1.5 1.5v7.5l-1.5 4.5-1.5 3v3l-1.5 3v3l-1.5-1.5v3h-1.5v-3l4.5-9 1.5-3v-12l-1.5-3-7.5-7.5v-1.5h-10.5l-6-1.5-13.5-4.5h-1.5l-1.5-3h-1.5l-1.5 1.5-10.5 3h-1.5l-1.5 1.5-12 10.5v1.5h-9v1.5l-1.5 4.5v-1.5l-1.5 3v6l-3 1.5h-1.5l-1.5 1.5-1.5 3h-3v1.5l-25.5 16.5-4.5 3v1.5h-1.5v1.5h-2.407l-9.594 6-1.5 1.5-6 4.5h-1.5v1.5l3 3v7.5l-1.5 1.5h1.5l1.5 3h-1.5l1.5 1.5 1.5-1.5h1.5l6-1.5h3l1.5 1.5h6l4.5 1.5 3 3 4.5 1.5 1.5 1.5v1.5h1.5l13.5 12 1.5 3h1.5l3 1.5 3-1.5 7.5-3h4.5l1.5-1.5 4.5-1.5h1.5l1.5-6 1.5-1.5v-4.5h1.5v-7.5h-1.5v-1.5l-1.5-3 1.5-1.5 4.5-4.5 3 1.5 4.5-1.5h1.5l1.5-1.5h-1.5l1.5-1.5 1.5-1.5 1.5-1.5 4.5-4.5 12-6h3l1.5 1.5h1.5l6-4.5 1.5-3 3-3 1.5-3 1.5-1.5v1.5h1.5v1.5h-1.5l1.5 1.5-1.5 1.5-1.5 1.5-4.5 4.5-3 3-3 1.5v1.5h-1.5l-1.5 1.5h-1.5l-1.5 1.5v1.5h-1.5v1.5h-3l-3 1.5-1.5 1.5h-1.5l-1.5 1.5-3 1.5h-1.5l-1.5 1.5-1.5 1.5v1.5h-3v3h-1.5v1.5h-1.5v1.5h-1.5v1.5l-3 1.5-1.5 1.5-1.5 1.5v1.5l-1.5 3v3l-1.5 3v1.5l-1.5 3-1.5 1.5h-7.5l-3 3-1.5-1.5-1.5 1.5-4.5 1.5h-3l-1.5 1.5h-3l-1.5-1.5-1.5-1.5-1.5-1.5h-1.5v-1.5l-1.5-1.5h-4.5l-1.5-1.5h-3l-1.5-1.5-3-3v-1.5l1.5-1.5h-3l-1.5-1.5h-1.5l-1.5-1.5h-1.5v-1.5l-1.5-1.5-1.5 1.5h-9l-1.5 1.5h-1.5l-1.5 1.5h-1.5v-1.5h-1.5l-1.5-1.5-1.5-1.5-1.5-3h-1.5v-1.5h-4.5l-1.5-3h-7.5l-3 1.5-1.5-1.5v1.5h-1.5v-1.5h1.5v-1.5l-1.5-1.5h-1.5l-1.5 1.5h-3v-1.5h1.5v-3l-3-1.5h-1.5v1.5h-1.5l-1.5-1.5h-1.5v-1.5h3l1.5-1.5-4.5-3v-1.5l3 1.5 1.5 1.5h1.5l1.5-1.5v1.5l1.5 1.5 1.5-1.5v-3h1.5l1.5-1.5v-3l1.5-1.5 1.5-1.5 1.5-1.5h3v-1.5l1.5-1.5v-1.5l3-3h-3l-1.5-1.5v1.5l-3-1.5v-4.5l1.5-1.5v-1.5h-1.5l-1.5 1.5-1.5-1.5 3-1.5h3v-1.5l-1.5-1.5v-3l1.5-1.5 1.5 1.5v-1.5l1.5-1.5 1.5-3h-1.5v-3h-1.5v-1.5l-1.5-1.5v-1.5l-1.5-3v-1.5l-3-4.5v-1.5l-1.5-1.5v-3l-1.5-3v-1.5l-1.5-1.5 1.5-1.5-1.5-1.5v-9h1.5v-1.5h1.5l1.5-1.5h3v1.5l1.5 1.5v-1.5l1.5-1.5h4.5l1.5 1.5 1.5 1.5h1.5l1.5 1.5v1.5h6l1.5-1.5 3-3h4.5v-1.5l1.5-1.5h1.5v-1.5l3-1.5v-1.5l1.5-1.5v-4.5l1.5-3h4.5l1.5-1.5h1.5l-1.5-1.5h1.5l1.5-1.5 1.5-1.5-1.5-1.5-1.5-1.5v-9h-1.5l-1.5-1.5-3-1.5h-6l-1.5-1.5h-4.5l-1.5 3-1.5 1.5v1.5l-1.5-1.5h-4.5l-3-3-1.5-1.5-1.5-1.5 1.5-3h-1.5l-1.5-1.5h-1.5l3-22.5-3-4.5-4.5-9v-1.5l-1.5-1.5-4.5-9h-3v3l-3 3h-1.5l-3 1.5h-1.5l-1.5 3h-9v1.5h-3l-3-1.5-4.5 1.5-1.5-1.5-4.5-3h-1.5l-4.5-3-1.5-1.5-1.5-1.5-1.5-3v-6l1.5-3v-1.5h-1.5v1.5h-3v-3h-9l-3 4.5v6l-1.5 4.5v10.5l-3 9-1.5 9-3 9v3h-1.5v3l-3 6v3l-3 9v10.5l-1.5 6v6l-1.5 6v7.5l-1.5 1.5v1.5l-1.5 10.5-1.5 13.5-1.5 7.5-1.5 3-1.5 3-1.5 3-1.5 4.5 3-1.5h1.5l3-1.5 1.5 1.5h-1.5v1.5h-3l-1.5 1.5h3v1.5l-3-1.5h-1.5v1.5l-3-1.5v3l1.5 3-1.5 1.5v3l-1.5 3-1.5 6-1.5 4.5-3 7.5-6 12-9 19.5-3 4.5-1.5 3-4.5 7.5-1.5 1.5v1.5l-3 4.5-1.5 3-4.5 6-9 12-4.5 3v1.5l-3 3h-1.5v3h1.5l-1.5 1.5v-1.5h-1.5l-1.5 1.5-1.5 3-1.5 1.5-4.5 4.5-3 3-4.5 6-1.5 1.5-3 3-1.5 1.5v1.5l-3 4.5-3 1.5-3 3h-1.5l-1.5-1.5-7.5-1.5-1.5 1.5h-3l-1.5 1.5v1.5l-1.5 1.5-1.5 3 1.5 1.5 1.5 1.5v1.5l-3 3-1.5 3-3 4.5h3l1.5 1.5 1.5-1.5 6-1.5h1.5l1.5 3h-1.5v1.5l-3 3v1.5l-1.5 1.5v1.5l1.5 1.5 6 9v3l-1.5 1.5 3-1.5 1.5 1.5 1.5 1.5 1.5 1.5v1.5h6l-1.5 1.5 1.5 1.5h1.5v-1.5h4.5l1.5 1.5 3 4.5h4.5v1.5h3l1.5 3 1.5 1.5h3l-1.5 1.5h-1.5l1.5 3 1.5 1.5 4.5 1.5v1.5h3l3 1.5h3v1.5l6 1.5 3 3h1.5l3 1.5 4.5 3h1.5l1.5 1.5h3v1.5h7.5l3 1.5h3l1.5 1.5h1.5l1.5 1.5h1.5l3-1.5h1.5l4.5-1.5h1.5l1.5-1.5h3l1.5-3 1.5 1.5h1.5l3-1.5v3l-3 1.5-1.5 1.5h-1.5l-1.5 1.5-1.5 1.5-12 3h-3l-4.5 1.5h-3l-4.5-1.5-1.5-1.5h-1.5l-1.5-1.5h-4.5l-1.5 1.5-3 1.5-1.5 1.5v1.5l-1.5 3-1.5 1.5-1.5 1.5-1.5 1.5-3 1.5h-1.5l-1.5 1.5h-1.5v-1.5h-1.5l-1.5 1.5h-4.5l-1.5 1.5h-3l-1.5 3h-1.5v-1.5h-4.5l-3-1.5h-6l-3-1.5-4.5-3h-1.5l-4.5-1.5v1.5l-3 3h-1.5l1.5 3h1.5l1.5 3 1.5 3h9v-1.5h1.5v3l-1.5 1.5h-7.5l-1.5 1.5h-1.5l-3-3-6-1.5h-1.5l-3 1.5-1.5 1.5h-1.5l-3 1.5-1.5 1.5-1.5-1.5-3 1.5-1.5 1.5v3h1.5v1.5h3l1.5 1.5 1.5 1.5h1.5v3l1.5 1.5h1.5l1.5 1.5 1.5 1.5v3l1.5 1.5h1.5v1.5h12l1.5 1.5h1.5v-1.5l3 1.5 3 1.5-1.5 1.5v3h1.5l6 3 1.5 1.5v10.5l1.5 6h-4.5l-1.5-1.5h-4.5l-1.5 1.5h-1.5l-1.5 1.5h-4.5v-1.5h-1.5l-4.5-3h-1.5l-1.5-4.5h-1.5l-3-4.5v-1.5l-1.5-1.5 1.5-1.5-1.5-1.5v-3h-1.5l-1.5-1.5-3-3-1.5-1.5h-3l-1.5-1.5h-1.5l-3-1.5h-1.5l-1.5-1.5-1.5 1.5h-1.5v1.5l-3-4.5h1.5l-1.5-1.5v-1.5h-4.5l-1.5 1.5h-10.5v-1.5l-1.5-1.5h-3l-3 1.5h-1.5l-1.5 1.5-4.5-1.5h-1.5l-1.5-1.5-1.5 1.5-3 1.5v1.5l-1.5 1.5v1.5l-1.5 1.5h-1.5l-1.5 1.5h3l-3 1.5v-1.5l-3-3-1.5-1.5v-1.5l-1.5-4.5v-1.5h-1.5l-1.5-1.5-3-1.5-1.5-1.5-1.5-1.5v-4.5l1.5-1.5h-3l-1.5-1.5h-10.5v1.5h-3l-1.5 1.5-3 1.5-1.5 1.5-3 1.5h-1.5l-1.5 1.5-1.5 1.5-3 1.5-1.5 1.5h-1.5l-1.5 1.5-1.5 1.5v4.5l1.5 3h1.5l1.5 1.5 1.5 1.5 3 1.5v1.5h1.5l1.5 1.5 1.5 1.5v1.5l1.5 1.5v1.5l1.5 1.5v1.5l1.5 1.5 1.5 1.5 3 1.5v1.5h1.5l1.5 1.5v1.5h6v-4.5h1.5v3l1.5 1.5h4.5l1.5-1.5v-1.5h6l-3-1.5 1.5-1.5 3-1.5h1.5v1.5l4.5-3v-3l1.5 1.5v1.5h1.5l-1.5 1.5h-1.5l-3 1.5 3 1.5h3l-1.5 1.5 1.5 1.5v1.5l-1.5-1.5-1.5 1.5h-1.5l1.5-3-3-1.5-1.5-1.5-1.5 3 1.5 1.5 4.5 3 1.5 1.5v1.5h1.5v4.5h1.5l1.5 1.5h1.5v-1.5h1.5l3 1.5h1.5v1.5l3 1.5v1.5h1.5l3 3h4.5l3-1.5h1.5l1.5-1.5h4.5l1.5 1.5 1.5-1.5 1.5-6h1.5v-3h1.5v-9l3 1.5 3-1.5h1.5l3-3 1.5 1.5 1.5 1.5 1.5 1.5v1.5h1.5v1.5h3l1.5 1.5 1.5 1.5h3v4.5l3 1.5h1.5l1.5 1.5h1.5l3 1.5 3 1.5h3l1.5 1.5h3l4.5-1.5 3-1.5h3v1.5h3l3 1.5 1.5 4.5v3h4.5l3-1.5h10.5v1.5l1.5 1.5v4.5l1.5-1.5 4.5 1.5h6l1.5-1.5 3-1.5h1.5v-3l-7.5-10.5-1.5-4.5 1.5-1.5h1.5v-6h-1.5l-1.5-1.5 1.5-1.5 10.5-4.5h3l1.5-1.5 1.5-1.5h3l10.5-1.5 1.5 3-3 7.5 1.5 9 7.5-3h4.5l6 1.5 3 1.5h1.5v-1.5l1.5 1.5 3-1.5-1.5-6 4.5-1.5h1.5l1.5-4.5 3-1.5 1.5-1.5 1.5-3 3-1.5 1.5-1.5-1.5-1.5h3v-1.5l3-1.5 1.5 1.5v1.5h3l3 1.5h1.5v3l1.5 1.5 1.5-1.5 1.5 1.5-1.5 3v3h1.5v1.5h-1.5l-1.5 1.5-1.5 1.5 1.5 6v1.5h3v1.5h-1.5l-4.5-1.5-1.5-1.5h-3v-1.5h-1.5l-3 1.5v3l1.5 1.5 3 1.5h1.5l4.5-1.5h6l1.5 1.5h1.5v-1.5h6l3 3v1.5h1.5l1.5 1.5h1.5l6-9 9-6v-3h1.5v-1.5l-1.5-1.5v-1.5l1.5-1.5v-1.5l1.5-1.5 3-1.5h1.5l-1.5 1.5 1.5 1.5v1.5h7.5l4.5 13.5-1.5 3-4.5 9 9 10.5v1.5l1.5 1.5 1.5 1.5v10.5l6 1.5 1.5-1.5 4.5-1.5h1.5v-1.5l9 6-3 12 1.5 1.5 6-1.5 6 1.5h7.5l1.5-1.5 1.5-3 4.5 1.5 6 1.5 3 1.5 4.5-4.5 1.5-1.5 4.5-1.5 1.5-1.5 1.5-1.5v-1.5h1.5l6 1.5v1.5l1.5 3 4.5 3 1.5 1.5v9l1.5 6h1.5l3 1.5 12 4.5 1.5 1.5v1.5l1.5 3 1.5-1.5 1.5 1.5h12l1.5-1.5h1.5l1.5 1.5h3l1.5 1.5v1.5h1.5l-1.5 1.5h-1.5v1.5h1.5v4.5h1.5v-1.5h3v-1.5h3v-1.5l3-1.5v1.5h1.5v3l4.5 3-1.5 1.5-1.5 1.5v1.5l-3 1.5h-1.5v1.5l-1.5 1.5-1.5 1.5 1.5 1.5h3l1.5 1.5v1.5l-1.5 1.5v1.5h-1.5l-1.5-1.5h-3v3l1.5 1.5v1.5h-1.5v1.5l1.5 3h-1.5v1.5h-1.5l-3-1.5-1.5 4.5v3l-1.5 1.5v1.5h1.5l1.5 1.5v1.5l-1.5 3v4.5l-1.5 1.5-1.5 1.5-1.5 3h-1.5l-1.5 3-1.5 3v1.5h3l1.5-1.5h1.5l1.5 1.5v1.5l-3 1.5v3l-3 3v1.5l-1.5 1.5 1.5 1.5-1.5 1.5h-4.5l-1.5 1.5v3l-3 3v1.5h-1.5l-1.5 1.5h-1.5v1.5h-3l1.5 1.5-1.5 1.5v9h1.5v3h1.5v1.5l1.5 1.5h3v1.5h3l1.5 1.5v1.5l-1.5 1.5 1.5 4.5v3l-3 4.5v1.5h3l1.5-1.5h1.5l1.5-1.5v1.5l1.5 1.5h1.5l1.5-1.5v-1.5l1.5-1.5 3-4.5h3v3l1.5 3 1.5-1.5 3 4.5h1.5l1.5-1.5 1.5 1.5 1.5-1.5 1.5-1.5v4.5l1.5-1.5 1.5-1.5v-1.5h3l3-1.5v4.5l3 1.5v-1.5h3v1.5l3-1.5 1.5-1.5h6l1.5 1.5 3 1.5h1.5v-1.5h4.5v-3l1.5-3-4.5-3h-1.5l-1.5-1.5v-1.5h-1.5l-1.5-1.5v-3l1.5-1.5 1.5 1.5 3 1.5 1.5-3 1.5-1.5v-1.5h1.5l-1.5-1.5v-1.5l-1.5-1.5v-3l1.5-1.5h3l1.5-1.5h1.5v-1.5h1.5v1.5l3 1.5v-4.5h1.5v-1.5l1.5-1.5v-3l-1.5-1.5v1.5l-1.5-3v-3l1.5-1.5v-1.5l1.5-1.5v-1.5l-1.5-1.5h-6v-3l-1.5 1.5-1.5-1.5-4.5-1.5v-4.5l-3-1.5 1.5-1.5h1.5v-1.5l1.5-6h-9l-1.5 1.5h-1.5l-1.5-1.5v-1.5h-1.5l-3 1.5h-1.5l-1.5 1.5h-1.5l-1.5 1.5h-1.5l-1.5-1.5 3-3v-4.5h-1.5l-1.5-1.5v-1.5h-1.5v-1.5h-1.5v-7.5l-1.5-1.5-1.5-3h6v-1.5l3-1.5 1.5-1.5v1.5l3 4.5 1.5 3v1.5l1.5-1.5h1.5v1.5h1.5v-1.5l1.5-1.5v-1.5l1.5-1.5v-3l1.5-1.5v-1.5l1.5-1.5v-1.5l1.5-1.5 3-1.5 1.5-1.5 3-1.5h1.5l1.5-1.5 1.5-1.5v-1.5l1.5-1.5h3l1.5-1.5v-3l1.5-1.5h3l1.5-1.5h1.5v-1.5h3l1.5-1.5h4.5l-1.5-1.5h1.5l1.5-1.5-6-4.5h-1.5l9-4.5-3-3-9 4.5-1.5 1.5-1.5 1.5h-6v-1.5l-1.5-1.5v-10.5l-1.5-1.5 1.5-1.5h3l-3-6 3-1.5 1.5-3 6-6v-1.5l1.5-1.5 3-4.5 1.5-3v-1.5l1.5-1.5v-3l1.5-1.5v-1.5h4.5v-1.5l7.5-7.5-1.5-4.5-1.5-3v-1.5l1.5-1.5 1.5-1.5h-4.5v-1.5l1.5-9v-4.5h1.5l-1.5-3 1.5-1.5v-4.5l-1.5-3-1.5-3 1.5-3-1.5-1.5v-4.5l-1.5-3-3-1.5-3-1.5-3-9-3-1.5-1.5-1.5-1.5-1.5-1.5-3v-1.5h-1.5l-4.5-3v-6h1.5v-1.5l1.5-4.5v-1.5l1.5-1.5v-1.5l-3-1.5h-3v-1.5h-3l-7.5-3-1.5-1.5v-3l1.5-1.5-1.5-1.5v-4.5h3v-1.5h-1.5v-3h-1.5l-4.5-3-1.5-1.5h-9v-3l1.5-1.5 3-1.5h1.5l1.5-3v-1.5h-1.5v-3h1.5l-1.5-1.5h-1.5v-4.5l-3-3h-3v-1.5l1.5-1.5h1.5l-3-1.5 3-4.5h1.5v1.5h4.5l3-1.5h1.5l1.5-1.5 1.5-1.5 1.5 1.5 1.5-1.5 1.5-1.5h1.5l-1.5-1.5 1.5-1.5 1.5-1.5 1.5 1.5 3 3h3l6 1.5h4.5l1.5 1.5v-7.5l-3-1.5h-1.5v-3l-1.5-3-1.5-1.5h-4.5l1.5-1.5v-1.5h1.5l1.5 1.5 6-3 1.5 1.5h1.5l1.5 1.5 3 1.5v1.5h-3l1.5 1.5 1.5 1.5 1.5 1.5 3 1.5h3v-1.5h3l1.5 1.5h1.5v-1.5h1.5v-1.5l1.5 1.5 4.5 1.5v1.5l1.5 3v1.5l3-1.5h4.5l1.5 1.5h1.5l1.5 1.5v3h4.5l3 1.5h1.5l-1.5-3 1.5 1.5-1.5-3v-1.5l1.5-1.5h-1.5v-1.5h-1.5l-1.5-1.5v-4.5l3 1.5h1.5l1.5 1.5h1.5v1.5h3l1.5-1.5 1.5 3h1.5l1.5 1.5 1.5-1.5 4.5-1.5v-3h1.5l1.5-1.5h3l1.5-1.5v-1.5h1.5l1.5-1.5v1.5h1.5l1.5-1.5 3-1.5 7.5-3h3v-1.5l3-1.5 3-1.5h1.5l1.5-1.5v1.5h3v1.5l1.5 1.5 3 3 3-1.5v-1.5h1.5l1.5-1.5h1.5v-1.5l1.5-1.5h1.5l3-4.5 1.5-1.5v-7.5l3-1.5h3l1.5-3-1.5-1.5v-4.5l-4.5-1.5h1.5l-9-6-1.5-1.5-1.5-3-7.5-3h-6v-6l1.5-1.5v-3h4.5l3-1.5 3-1.5v-4.5h1.5v-1.5l1.5-6h16.5l1.5-1.5 1.5-1.5 1.5-1.5v-1.5l1.5-7.5h1.5v-1.5l4.5-3v-1.5l4.5-1.5h4.5l1.5-3v-1.5l1.5-1.5v-1.5l1.5-1.5v-4.5l1.5-1.5 3-1.5 1.5 1.5h6l4.5-3v-1.5l-4.5-6-1.5-1.5v-3h-1.5v-6l1.5-4.5v-1.5h1.5v-1.5h1.5v-3l1.5-3v-1.5l3-4.5v-7.5l-3-6v-3h-4.5l-1.5-3-1.5-3-3-3v-1.5l-1.5-3v-3l-1.5-3v-1.5h-3l-1.5 3-1.5 4.5-3 1.5v1.5h-1.5l-7.5-1.5-3-1.5-4.5-1.5h-3l1.5-3h-19.5l-1.5-1.5-6-3-1.5-1.5-3-1.5 1.5-12-3-4.5-3-6h1.5l3 1.5h3l1.5-4.5h3l3 1.5 1.5-1.5-9-7.5v-3l1.5-6v-1.5l-1.5-1.5-1.5-1.5 1.5-1.5h1.5l1.5-1.5 1.5-3h4.5l1.5-1.5h7.5l1.5 1.5 1.5-1.5h7.5l1.5-1.5 1.5 1.5h4.5l3 1.5v1.5h10.5l1.5-1.5h1.5l1.5 1.5 1.5-1.5v1.5h1.5l4.5 1.5h1.5l3-3v-10.5l1.5-15v-28.5l4.5-9-1.5-3v-1.5l3-4.5 9-15 6-10.5 3-12 1.5-7.5 1.5-1.5v-1.5l-3-13.5v-19.5l-4.5-3v-6l1.5-1.5v-4.5l1.5-4.5h1.5l1.5-1.5h3l-3-1.5-1.5-1.5 1.5-1.5v-7.5l-1.5-4.5v-1.5h-1.5l-4.5-1.5h-1.5v-1.5h-6v-1.5h-6l-1.5-1.5h-1.5l-1.5-1.5-1.5-1.5v-4.5l1.5-1.5-1.5-3v-1.5h1.5l1.5-3v-1.5l-3 1.5-1.5 1.5h-9l-3-1.5v-1.5h-3l-3-1.5-3-1.5v1.5l-3-1.5-3-1.5h-1.5v-1.5h1.5l-1.5-1.5-3-3h-1.5l-1.5-1.5v-7.5l-1.5-1.5v-6l-1.5-3h-1.5v-4.5l1.5-4.5v-1.5l-4.5-4.5-3-1.5-1.5 3 1.5 1.5h-4.5v-1.5l1.5 1.5v-1.5l1.5-3h-1.5l-3-1.5-3 3-1.5-1.5-3-1.5h-4.5l-1.5-1.5zm37.5 43.5 1.5 1.5v-1.5h-1.5zm54 30v-3l-1.5 1.5 1.5 1.5zm-447 598.5h-3l1.5 1.5 1.5-1.5zm-259.5-66h1.5v3h1.5v3h1.5l1.5 1.5h1.5l1.5 1.5 1.5 1.5 1.5-1.5v1.5h-1.5l3 3v3l-1.5 1.5 1.5 1.5v1.5l1.5-3h1.5l1.5-3 1.5-1.5 6-1.5h3l1.5 1.5h6v-1.5h4.5l1.5 1.5 1.5 1.5h3l1.5-3h3l1.5-1.5v-4.5h-1.5v-1.5l-1.5-1.5-1.5-3v-1.5l-1.5-1.5h-3v-1.5h-3l-3 1.5-1.5-1.5h-3l-3 1.5-1.5 1.5-3-1.5-3 1.5h-1.5l-1.5 1.5h-1.5l-1.5-1.5h-1.5l-1.5-1.5h-3v-1.5h-1.5v1.5l-4.5 1.5-4.5 1.5zm87-79.5-1.5 1.5h1.5v-1.5zm151.5-360v-1.5h-1.5l1.5 1.5zm33 192v1.5h1.5l-1.5-1.5zm129 3-3-1.5 1.5 1.5h1.5zm-81.907-19.5 2.406-1.5-3 1.5h.594zm30.906-217.5-4.5 4.5h-3l1.5 1.5h1.5l1.5-1.5 3-4.5zm10.5-30v-1.5l-1.5 1.5h1.5zm154.5-55.5v1.5l1.5 1.5-1.5-3zm-9 9h1.5v1.5l-1.5-1.5zm-3 1.5h1.5l-1.5 1.5v-1.5zm-147 90h1.5l-1.5 1.5v-1.5zM417.844 289.47l.125.062-.938.438.813-.5zm-4.375 3.062-.313.281v-.03l.313-.25zm-.313.813.125.937-2.25.344-.031-.031-3.063 1.187 3-1.187H411l2.156-.344v-.906zm131.281 23.437v1.5h1.5v1.5l1.5 1.5v-1.5h1.5l1.5-1.5-1.5-1.5h-4.5zm-123 43.5v3l-1.5 3h1.5l1.5-1.5h1.5l1.5-1.5h1.5v-1.5l-3 1.5-1.5-1.5-1.5-1.5zm-133.5 210h1.5l-1.5 1.5v-1.5z" transform="scale(.66667)"/><path d="M404.967 27.187v1l-1 1h-1v-2l1-1h1v1zM362.967 26.187h6l13-1 6-1h3l2 1h1v2h-9l-2 1-2 1h-1l-4 1-4 1h-4l-3-1h-4v1l-1 1-1 1h-2l-1 1h-2 1l-1 1-1-1h-2l-1-1-2-1-1-2v-1l1-1 1-2 1-1 2-2h2l1 1h1l1 1h-1l-1-1h-3l-1 1h3l4 1h5zM441.967 15.187v2h-4l-2 1-3 1-1 1v1l-2 1h-4l-3 1h-5l-1 2v1h-1v1h-2v1l-1-2v-1h1l1-1-1-1v-3l1-1 2-1v-1h-4 1l1-1 2 1h3l10-1h3l6-1 2-1 1 1zM299.967 72.187l-1-1h4-1v1h-2v-1 1zM323.967 38.187h-4l-2 1h-1l-1 1-2 2-1 1h-2v1h-1l-1-1v1h-1l-1 1h-1v1l-1-1h-3l-1 1-1 1-1-1-1 1h-1l-1 1v1h-1l-2 1h1l-1 1h-3l-1-2h-1v-1l1-1 2-3 2-3 2-1 2-1 4-1 6-1h2l6-2 5-2 11-4h3l3-1 1 1h1l1 1v3-2l-1-1v1l-1 1-1 1h-3l-2 1-1-1v1h1l-1 1h-2v-1h-1l1 1v1h-2l-1-1 1 1 1 1h2l-1 1h-5zM288.967 61.187l-1 1-1 1h-3v1h-1v-1h1-1l1-1 1-1h4zM275.967 62.187v1l-1 1-2 1-6 2-2 1v3h1v-1h1l-1 1-1 2-3 2-1 1h-1v1l-1 1-2 1h-6l-1 1v1h1-2v-4l6-3 3-3 2-1 2-2 1-1 4-3 2-1 1-1 3-1 2-1 2-1h1l3 1v1l-1 1h-4zM227.967 131.187l-2 1-1 1h-1v1h-1l-1-1v-3h3l3-1h2v1l-2 1zM249.967 116.187l-2 2-1 1h-3l-3 4v2h-2l-1-1-2-1h-1l1 1 1 1 1 1h1-2v1h-3 1l-1 1h-1l-1 1h-1v-3l-1-4v-3l1-3v-1l1-3 1-3 1-3 1-1 2-3 2-4 3-3v2l1-1 1-1 1-1h1v1-1h-1v-1l-1 1-2 1 3-6 1-1 2-1v-1h2l1 1 1 1v2h1-1v1l1 1 1 1 2 3v1l-1 1v10l-1 2h-1l-1 1v2l-2 2v1zM289.967 126.187l-14 12-1 1h-1v-1h2l14-12zM256.967 150.187l-2-1-3 1 4-2 1-1 2-1h1l2-3v-1l2-2h2l1-1h1l1 1h1l1-1h1l1 1v-1h1v2l-1-1v2h-1v2l-2 2h-1l-2 1h-1l-1 2h-6v1h-2z" style="fill:#b9b9b9;fill-opacity:1;fill-rule:evenodd;stroke:#b9b9b9;stroke-width:.69999999999999996;stroke-linecap:butt;stroke-linejoin:bevel;stroke-miterlimit:10;stroke-opacity:1;stroke-dasharray:none"/><path style="fill:#b9b9b9;fill-opacity:1;fill-rule:evenodd;stroke:#b9b9b9;stroke-width:1.0499999499999999;stroke-linecap:butt;stroke-linejoin:bevel;stroke-miterlimit:10;stroke-opacity:1;stroke-dasharray:none" d="m200.938 558.281-3 1.5h3v-1.5zm0 1.5-4.5 1.5h-3l3-1.5-4.5 1.5-9 3-3 1.5h-1.5l-4.5 1.5h-1.5l-1.5 3v3l1.5 4.5v1.5h1.5v1.5h1.5l3-1.5v-1.5h-1.5v-1.5h4.5l1.5-1.5h4.5l1.5-1.5 1.5-1.5 3 1.5h3l3 1.5v1.5l1.5 1.5 1.5 3h1.5v4.5h-1.5v1.5h1.5l-1.5 1.5v1.5l1.5 3h1.5v1.5l1.5 1.5v1.5l1.5 3v3h3l1.5 1.5 1.5-1.5v1.5h9l1.5 1.5 4.5 1.5 1.5 3 1.5 1.5h4.5v1.5h3l1.5 1.5h1.5v3l3 1.5 1.5 1.5h7.5l3-1.5h4.5l4.5-1.5 3-1.5 1.5-1.5 1.5-3v-1.5h-1.5v-1.5h6l3-1.5h-1.5v-3h-1.5l-1.5 1.5h-13.5l-3-4.5h-3l-1.5-1.5h-1.5l-1.5-1.5v-1.5l-3-1.5v-3h-1.5l-4.5-4.5-4.5-4.5h-1.5v-1.5h-3l-1.5-1.5h-1.5l-3-3-3-1.5h-1.5l-6-3-1.5-1.5-4.5-1.5v-1.5l-1.5-1.5h-1.5v1.5l-1.5-1.5h1.5v-3h-1.5v1.5h-1.5v-1.5l-3-1.5v-1.5l-1.5-1.5zm-28.5 21-1.5 3-1.5 1.5-3 1.5h1.5l3 1.5 1.5 1.5h1.5v-1.5l-1.5-1.5-1.5-1.5 1.5-4.5z" transform="scale(.66667)"/><path d="m126.967 387.187 1 1-1-1h-2l-2 1-2 1h-1v-1l2-1v-1l1-1 1-1v1h1l2 2zM172.967 394.187l2 1 3 1 2 1 1 1h-1l-2 1h-4l-1-1-1-1h-1l-2-2h-1l-1-1 1-1h2l3 1z" style="fill:#b9b9b9;fill-opacity:1;fill-rule:evenodd;stroke:#b9b9b9;stroke-width:.69999999999999996;stroke-linecap:butt;stroke-linejoin:bevel;stroke-miterlimit:10;stroke-opacity:1;stroke-dasharray:none"/><path style="fill:#b9b9b9;fill-opacity:1;fill-rule:evenodd;stroke:#b9b9b9;stroke-width:1.0499999499999999;stroke-linecap:butt;stroke-linejoin:bevel;stroke-miterlimit:10;stroke-opacity:1;stroke-dasharray:none" d="M95.938 699.281v1.5h-3l-3 1.5h-3l-1.5 1.5h-7.5v1.5h-1.5l-1.5 1.5h-3l-1.5 1.5h-1.5v1.5l1.5 1.5v6l1.5 1.5v3l-4.5 4.5-1.5 1.5 1.5 1.5 3 3h-3v1.5l1.5 1.5 1.5 1.5v1.5l-1.5 1.5 1.5 1.5h1.5l1.5 3h1.5l1.5 3 1.5-1.5 1.5 1.5v3h1.5l1.5 1.5h6l12-1.5-1.5-10.5-1.5-1.5 3-1.5 1.5 1.5h1.5v-1.5h3v-1.5h1.5l1.5 1.5 1.5 1.5 1.5-1.5-1.5-3 3-1.5 1.5 1.5 3 1.5 1.5 1.5 3 1.5h1.5v-1.5h3l3 3h1.5l1.5 1.5v1.5h4.5l1.5 1.5v-1.5l6 1.5h1.5l1.5 3h1.5v-1.5l1.5 1.5 1.5 1.5h1.5v1.5l-1.5 1.5v10.5l1.5 1.5h1.5v-1.5l1.5 1.5h10.5l3-3h3v3h-1.5l-1.5 1.5 1.5 1.5h3l3-1.5h1.5l-1.5-3 3-1.5 1.5 3h1.5v-1.5h3l1.5-1.5v-1.5h3l1.5-3h1.5l1.5-1.5 3-1.5h1.5v1.5h1.5l1.5-1.5v1.5h3l1.5-1.5h1.5l1.5-1.5 3-3 3-1.5 3-1.5 7.5-6 1.5-1.5 15-18h-1.5v-1.5h-1.5v-3l-1.5 1.5v-3l-1.5-1.5h-3l1.5-1.5h-3v1.5l-1.5 1.5v1.5l1.5 1.5h1.5v3l-1.5-1.5-1.5 1.5h1.5l-1.5 1.5h1.5v1.5l-1.5-1.5h-3l1.5 1.5v1.5l-1.5-3-1.5-1.5h-1.5l1.5 1.5 1.5 1.5h-1.5v-1.5h-1.5v-3l-1.5-1.5-1.5-1.5h-4.5v1.5h4.5l-1.5 1.5v1.5l1.5-1.5 1.5 1.5h-1.5v3h1.5v1.5h-1.5l-3-6h-1.5l-4.5-3v-1.5h-1.5v1.5l-6-1.5-1.5-1.5v-1.5l-1.5-1.5v-1.5l-1.5-1.5 1.5-1.5h-1.5l-1.5-1.5v-1.5h-4.5l-1.5-1.5h-3l-1.5 3v1.5h-1.5v7.5l-1.5 1.5v-1.5l-1.5 1.5h-1.5l-4.5 1.5-3 1.5-1.5 1.5h-1.5v1.5h-3v1.5l-1.5 1.5h-6l-1.5-1.5h-1.5v1.5l-1.5-1.5v3l-1.5-3v-1.5h-3v-1.5h-4.5v4.5l-3-1.5v-1.5l1.5-1.5h-9v-1.5l-1.5-1.5-1.5-1.5h-1.5v-1.5l-1.5-1.5h-4.5l-3-1.5h-1.5l-4.5-1.5h-1.5v-1.5h-1.5l-3-1.5h-1.5l-1.5-1.5-1.5-1.5h-1.5l-1.5-1.5h-1.5v-1.5h-9zm136.5 21-1.5-1.5-1.5 1.5h3zm-1.5-1.5h4.5l-1.5-1.5h-1.5v-1.5h-1.5v-1.5h-3v3l1.5 1.5h1.5zm3-4.5 1.5 1.5h-1.5v-1.5zm3 0h1.5l-1.5 1.5v-1.5zm-10.5 10.5h1.5v1.5h-1.5v-1.5z" transform="scale(.66667)"/><path d="m289.967 126.187 4-4 1-1 11-10h1l3-1h1v-1 1l1 1-1-1h-1l-2 1h-2l-9 9-1 1h-1l-1 1-4 4zM89.967 437.187l-1-1v-1h1l1 1v1l-1 1v-1zM94.967 414.187l-1 1v3l1 1 1-1-1-1 1 1-1 1-2-1v2l-1-1-1 1h1v1h-1v-1l-1 1v3h-1l1-2v-1l-1-1h-1 1l1-2 2-1v-2 1h2v-1l1-1zM304.967 192.187h2l7 3 1 1 5 5 2 3v1l5 8 2 5v1h-1l-1 1-2 1-1 4-1 2h1l-1 2v-2l1-2 1-4 1-1 2-1h1v-1l-2-5-7-12-5-5-1-1-6-3-1 2h-3 1l1-1 1-1h-2zM441.967 15.187h2v1l-2 1v-2zM459.967 6.187v1l1 1 1 1 1 1-1-1h-4v2h1l-1 2-1-1-1-3-1-1v-1l1-2h3l1 1zM469.967 7.187h4l2 1v1-1h-6l-1 1v-1l1-1zM120.967 396.187v-1h1l2 1h-3zM157.967 418.187v-1l-1-1-1-1v1h-1l-2-2 1-1h-1v1h-2v-1h6-2v1h2v1l1 1v2zM129.967 392.187h1l1-1v2l1 3 2 2-1 1h-1v-1l-1-1v-1l-1-2-1-1v-1zM126.967 394.187l-1 1h-2v-1h4-1z" style="fill:#b9b9b9;fill-opacity:1;fill-rule:evenodd;stroke:#b9b9b9;stroke-width:.69999999999999996;stroke-linecap:butt;stroke-linejoin:bevel;stroke-miterlimit:10;stroke-opacity:1;stroke-dasharray:none"/><path d="m123.967 418.187-1 1h-2l-2-1h-1l2-1v-1 1l-2 1h-1l1-2-1-1v-2h-1v-2l-1-2-2-1-1 1v-1l-3-1v-2l-1-1h-3l-1 1v1h1l1-1 1 1-1-1-1 1h-2l-1 2-2 1h-2l-2 1-1 1v2h1v1h-1l-1-1h1v-2l-1-1h-2v-1l-1-1-1-2v-5l1-2 2-2 2-1h2l4-1 1-1h4l3 1v-2l1-1v-1h2l-1 1h1l-1 1v-1h-1v1l-1 2h7l2-1 1 1 1 1v1h3l2-1 1 1h3v1-1l1 1v2l1 1 2 2 1 2v2h4l2 1 3 2h1v1h1l2-2h5l1-1h1v3h1l-1 1h-1l1-1-1-1v-1h-1v1l-1-1-3 1h-1l-1 1h-1v1l1 1v1l-1 1h1v-1l-1 1v1h-1l-1 1-1 2h-1l-1 1-1-1-2 1-1 1h-2v1h-7l-2-2-1-2zM113.967 438.187v-1h-1 1v1zM186.967 405.187l-1 1h1-1v1l-1-1 2-1z" style="fill:#b9b9b9;fill-opacity:1;fill-rule:evenodd;stroke:#b9b9b9;stroke-width:.69999999999999996;stroke-linecap:butt;stroke-linejoin:bevel;stroke-miterlimit:10;stroke-opacity:1;stroke-dasharray:none"/></svg>